<svg id="Layer_1" data-name="Layer 1" xmlns="http://www.w3.org/2000/svg" viewBox="0 0 155 155"><title>image_shape</title><path d="M1044.5,555.24c-.09-3.24-.73-6.68-1-9.8V546c-.68-.38.09-2.35-.44-3.89.1.38.43.47.34.37a21,21,0,0,0-.56-3.36c-.26-1.22-.64-2.55-1.06-4.13l.25.37c-.07-1.27-.63-3.28-.85-4.63-.26-.37-.43-1.13-.55-.62-.08-4.31-2.64-7.67-3.15-11.41.15.43.5,1,.38.64-.41-1-.8-2-1.26-3-.17.31,0,.44,0,1.13a7.21,7.21,0,0,1-1.05-1.88c.7,1.29.43-.14.35-.78,0,.13-.21,0-.27,0-.15-1.71-.64-.09-1.21-2.31l.19.06a23.7,23.7,0,0,1-1.25-2.29c.14-.46.53.78.8.75-.56-1.19-1.66-2.14-1.85-3.32.32.47.65,1.2,1,1.67a6.33,6.33,0,0,0-.7-2.29l0,.09-.84-2.05.16.54c-1.51-1.16-1.71-2.92-3.3-4.63,1.55,1.66.46.18.87.18-.2-.53-.54-1.33-.32-1.16-.82-.78-.67-1.63-1.88-2.7.07-.11-.6-1-.21-.89-.83-1.13,0,.36-.2.33a20.69,20.69,0,0,1-2-3.07,14.59,14.59,0,0,0-2.7-3.52c-1.73-1.8-2.39-2.13-3.91-3.51l-.46-.51c-.12-.39.87.42.87.42a12,12,0,0,0-2.5-2.68c.27.12.14-.12,0-.48-.76-.71-.8-.25-1.66-1.29a3.43,3.43,0,0,1,1.1.43c-.94-.8-2-1.46-3-2.26-.1-.36.79.32,1.22.54a14.47,14.47,0,0,0-3.52-2.39l.47.5c-.09-.15.21-.14.48,0,1.13.63,1.29,1.21,1.25,1.34-.24-.2-.5-.36-.75-.54.13.5.81,1.1,1.64,1.72a17.14,17.14,0,0,1,2.4,1.93l-.74-.19a62.55,62.55,0,0,0-10.88-8.65l-.16-.09a2.62,2.62,0,0,0,.53-.27,1.88,1.88,0,0,0,.44.33h.67l-1-.55h0c0-.25-.38-.68-1.47-1.48l-2-.76-.45-.54,1.55.85a4.23,4.23,0,0,0-2.14-1,1.64,1.64,0,0,0-.66-.61l-2.13-.45c-.13-.28,1,.05-.17-.64-1-.16.65.74-.93.28-.83-.58-.47-.64-1.67-.9-.1-.18.17-.16.64,0-.53-.12-1.19-.37-1.8-.57a5.48,5.48,0,0,0-1.51-.28,10.22,10.22,0,0,0-2-.8c-.72-.22-1.3-.4-1.17-.61a17.12,17.12,0,0,1-2.91-.37c1.94-.17-3.61-.81-3-1.3-1.44.24-4.85-.6-7.26-.52a1.68,1.68,0,0,1,.61,0c-1.33-.19-1.7-.39-2.56-.52-.21.42-2.3.37-3.42.61-1.63-.41,1-.49.51-.88.07.34-2.87.33-2.31.61-1.26-.25-1.08-.13-1.74-.47-.2.54-1.17.14-2.19.51-1.84-.15-.52-.51-2.5-.17-1-.07.8-.43.8-.43-2.05.19-.92.48-1.32.75-2.4.35-1.16-.18-2-.3-1.5.27-2.57.85-3.69,1-.09-.05-.32,0-.08-.16-1.5.58-4.67.91-6.31,1.81a.78.78,0,0,1-.27,0c.36.11.47.29.46.45-.86.24-1.51.65-1.93.51a1.64,1.64,0,0,0,.76-.4c-.29.12-.58.22-.86.36-.47,0-.18-.18.22-.32s.92-.27.87-.41c-.88.28-1.78.7-2.63,1.06a24.11,24.11,0,0,1-2.35.88c-.46-.29,3.06-1.15,1.14-.88l2.12-.54c-1.8,0,1.28-.37-.41-.49a25.42,25.42,0,0,0-2.89,1,25.72,25.72,0,0,1-2.81,1.14c-.5.42.34.2-.16.62-3.43,2-3.37.47-5.75,2.2a4.28,4.28,0,0,1-2.47,1.89l.37-.69c-2.41,1.28-1,1.21-3.57,2.49.31-.4,1.7-1.25,1.32-1.07-1.76.71-.94.88-2.12,1.63l-.49-.14a34.8,34.8,0,0,0-3.54,2.69L922.51,480l-1.73,1.54c.05-.19.37-.62-.28-.23-.71.67-1.5,1.31-2.27,2s-1.51,1.4-2.29,2.09l-1.17,1-1.11,1.05-2.13,2a13.67,13.67,0,0,0-.66,1.26c-.21.25-.52.38-.35.07-1,1,.14.18-.2.79-.5.64-.86.72-.61.26-.35.54-.78,1.17-1.26,1.85s-.94,1.46-1.45,2.2-1,1.49-1.55,2.17a21.4,21.4,0,0,1-1.39,1.84l.18-.47c-1.23,1.67-.67,2.23-1.9,3.74l.13-.35a60.93,60.93,0,0,0-3.26,5.9c-1,1.94-1.85,3.81-2.77,5.27.18.72-1.78,4-1.19,4.44a23.52,23.52,0,0,0-2.32,4.85c-.31.89,0,1.43-.15,2.57l-.38,0,0,1.59-.64.73-.16,1.07c.12-.41.38-.86.47-.78-.23,1.67-1,4-1.25,4-.16,1.32-.21,2.65-.26,4-.11-.08-.12-.48-.13-.9,0,1.49-.45.08-.35,1.91.12-.25.21.16.28.21a17,17,0,0,0-.52,4.79l-.24-.33a35.52,35.52,0,0,0-.09,4.64c0,1.61.15,3.26.23,4.91.06-1.19.53-.93.62,0l-.38.41c.28.61.1-1,.47.25,0,1.23-.41.85-.58.15.07.5.15,1,.26,1.49-.11.1-.21-.25-.37-.33.32.59-.11,2.63.42,3.48l-.1.1c.18,1.65.5,2.84.71,4l.35,1.66c.15.56.31,1.15.48,1.81.35,0,.53,1,1,1.76.15,1,.42,2,.67,3.09a21.46,21.46,0,0,0,1,3.33c.79,1.55.46.39.93,1.05-.25.2.66,2.45,0,1.35a28.67,28.67,0,0,0,1.46,3.12l.8,1.51c.16.28.32.59.51.93l.7,1.08c-.08-.4-.25-.82,0-.66.37.57.63,1.39.45,1.37l-.12-.14a30,30,0,0,1,1.71,2.86c.59,1,1.15,2,1.7,3.07a22.62,22.62,0,0,0,1.81,2.84,11.28,11.28,0,0,0,1.93,2.22l-.16-.13,2.63,2.48c1,1.26-.84-.6-.18.41l2,1.78c.59.55,1.11,1.08,1.61,1.6a19.24,19.24,0,0,0,3.4,2.88,4.91,4.91,0,0,0,.68.89,11.29,11.29,0,0,0,1.06.91c.82.61,1.75,1.31,2.77,1.93S922,607.44,923,608a27.09,27.09,0,0,1,2.63,1.59l-.07-.26c.91.24.91.59,1.48.93,0-.17-.78-.6-.22-.43,3.53,1.5,7.16,3.06,11,4.27,1.89.68,3.84,1.17,5.78,1.74s3.91,1,5.87,1.31a4.81,4.81,0,0,0,2.44,0,6.38,6.38,0,0,1,2.94.25l-1.09.24c5.88.31,12,1,17.74.59a1.93,1.93,0,0,1-.9.2,12.16,12.16,0,0,0,4.49-.3c.89,0,.22.19.77.27,1.23.09,3-.5,3.69-.28.09,0-.13.07-.34.11,1-.13,3.41-.21,2.69-.43,2.15,0,4.07-.5,5.8-.54,1.06-.45,3.69-.33,3.94-.86,0,.53,3.82-.23,5.09-.74-.41.24,1.19-.11.73.2,1.52-.33,2.88-.78,2.54-1,3-.13,5.33-2,7.14-1.87a65.35,65.35,0,0,0,11.19-6.15c.2.47-3.78,2.37-3.36,2.65,3.26-2.08,4.83-3.59,7.82-5.83.81-.55-.27.5-.46.77a47.71,47.71,0,0,0,7.45-7.36s-.15.33-.34.61c.41-.5,1-1.09.8-1.17l-.35.51c-1,.57,1.07-2.31.92-2.52-.06,1.21,2.09-2.42,1.81-.63.21-.35.44-.83.23-.83.41-.47.6-.6.41,0,1.16-1.94.49-1.39,1.63-3.09.11.06-.08.43-.08.67a13.4,13.4,0,0,1,1.66-3.39c0,.08.1,0,.06.17,1.3-2.48,1.72-4.48,3.08-7.25.15,1,.56-1,1.06-1,.18-.55.32-1.1.46-1.65l-.43.59c.46-1.42.62-2.74,1.07-3.94l-.11,1.11.66-2.71-.59,1.48c.17-1.49-.61,0,0-1.84,0,.4.33-1.43.76-2.14h0a10.78,10.78,0,0,1,.29-2.55c.19-.26.47.29.6.12-.23-.76.38-3.44.07-4.38.06.31.3.34.36.25s-.16-.42-.25-.63c.15-.67.21-.76.39-.64.22-2-.63.61-.19-1.8a3.56,3.56,0,0,1,.08.51c.3-2.44,0-4.72.14-7C1044.46,553.38,1044.11,556,1044.5,555.24ZM919.11,483.42c.09-.19-.61.34-1.08.67.34-.3.74-.69,1.21-1.07C919.43,483,919.4,483.18,919.11,483.42Zm1.75-1.76h0l.7-.6Zm95.62,3.12-1.25-1.26,1.26.83C1016.59,484.57,1016.62,484.78,1016.48,484.78Zm5.36,6.25a3.14,3.14,0,0,1,.82.62l.05.53Zm16.45,32.38-.36-1.11c.15.05.34.32.63,1A.37.37,0,0,1,1038.29,523.41Z" transform="translate(-889.5 -463.5)"/></svg>