<svg id="Layer_1" data-name="Layer 1" xmlns="http://www.w3.org/2000/svg" viewBox="0 0 255.89 484.67"><title>menu_shape</title><path d="M234.21.85c.07-.07.13-.14-.22-.23l1-.07a2.06,2.06,0,0,0,.74,0C236,.7,235.41.78,234.21.85Z" fill-rule="evenodd"/><path d="M227.81.66c.28.22-1.75.07-2.49.18.15-.08.11-.23-.73-.2C224.8.38,226.94.67,227.81.66Z" fill-rule="evenodd"/><path d="M218.92.65a8.71,8.71,0,0,1,2.22-.08C221.77.75,219.48.84,218.92.65Z" fill-rule="evenodd"/><path d="M215.19.84a10.41,10.41,0,0,1-2.71,0A7.78,7.78,0,0,1,215.19.84Z" fill-rule="evenodd"/><path d="M212.24.72c-2.18.1-1.16-.3.51-.2C212.89.6,211.93.64,212.24.72Z" fill-rule="evenodd"/><path d="M196.43.72c-1.44.15-2.39,0-2-.18A5.09,5.09,0,0,1,196.43.72Z" fill-rule="evenodd"/><path d="M161.15.26c.7.14-1.54.08-1.73,0C158.93.2,160.47.12,161.15.26Z" fill-rule="evenodd"/><path d="M158.42.38c-1,.11-1.17-.08-2,0C156.05.18,158.36.21,158.42.38Z" fill-rule="evenodd"/><path d="M146.08.29c-.11-.2,2.39-.11,2.71.05a17.84,17.84,0,0,1-2.71-.05" fill-rule="evenodd"/><path d="M141.63.28c-.33.27-2.82.06-3.45-.07.92-.06.76-.16,1.76-.21C140.55.07,140.59.37,141.63.28Z" fill-rule="evenodd"/><path d="M129,.3a20.13,20.13,0,0,0-2.23.08C125.45.12,128.66,0,129,.3Z" fill-rule="evenodd"/><path d="M124.83.36c-.38,0-2.52,0-2,.14-1.57,0,0-.25-1.44-.38A9.12,9.12,0,0,1,124.83.36Z" fill-rule="evenodd"/><path d="M119.64.33a23.34,23.34,0,0,1-4.93-.14C116.19,0,117.2.07,118.44,0Z" fill-rule="evenodd"/><path d="M110.71.64c-.39-.18-.4-.34.06-.49,1.18-.14,1.47.06,2.47,0C114.1.37,112.83.52,110.71.64Z" fill-rule="evenodd"/><path d="M106.06.25l1-.07.48.12-1,.08Z" fill-rule="evenodd"/><path d="M104.33.29c-.17-.1,1-.14,1.75-.21C106.5.24,105.3.33,104.33.29Z" fill-rule="evenodd"/><path d="M103.59.26c.12.24-2.07.09-2.73.12C100.49.07,102.4.3,103.59.26Z" fill-rule="evenodd"/><path d="M99.38.32c.63-.34,2.41.08,0,0Z" fill-rule="evenodd"/><path d="M92.93.63c.17-.09,0-.19-.46-.3a20.85,20.85,0,0,1,4.45,0C96.5.5,94.62.43,92.93.63Z" fill-rule="evenodd"/><path d="M88.47.79c-2,0,.66-.27-1-.43L90,.18C91,.44,88.48.57,88.47.79Z" fill-rule="evenodd"/><path d="M72.67.62,71.18.73c.33-.13-.24-.29-1.46-.22A5.79,5.79,0,0,1,72.67.62Z" fill-rule="evenodd"/><path d="M232.24.83c-.62,0-.52,0-.25-.07a9.47,9.47,0,0,0-1.47-.05c-.12-.24,2.07-.1,2.73-.12C233.48.69,231.84.72,232.24.83Z" fill-rule="evenodd"/><path d="M202.62.52c-.32.36-1.84-.1-3,0C199.71.32,201.72.59,202.62.52Z" fill-rule="evenodd"/><path d="M183.59.67a33.34,33.34,0,0,1-3.43-.24c.81-.08,1.24,0,.73,0A15.49,15.49,0,0,1,183.59.67Z" fill-rule="evenodd"/><path d="M134.21.33c.14.11-.73,0-1.49.11-.61-.13-.35-.23.77-.3C134,.24,133.27.37,134.21.33Z" fill-rule="evenodd"/><path d="M206,.65H206l.87,0,.45,0a2.67,2.67,0,0,1,.66,0c.12,0,0,.07-.23.09h0l-.68,0-.73,0a2.21,2.21,0,0,1-.63,0C205.63.71,205.74.67,206,.65Z"/><path d="M170.57.32h.51l1.23,0c.41,0,.72,0,.69.1a2,2,0,0,1-.81.09l-1.48,0c-.4,0-.65-.06-.54-.12A1.62,1.62,0,0,1,170.57.32Z"/><path d="M164.85.23a3,3,0,0,1,.78,0l.48.13c.13,0,0,.08-.28.11a3.48,3.48,0,0,1-.77,0l-.48-.13C164.44.3,164.56.25,164.85.23Z"/><path d="M75.72.34l.36,0a12.53,12.53,0,0,1,1.29,0c.35,0,.53.08.33.13a3.59,3.59,0,0,1-.92.05h-.17a5.19,5.19,0,0,0-.63,0c-.4,0-.7-.05-.68-.1S75.48.35,75.72.34Z"/><path d="M64.74.62l1.5-.11a1.54,1.54,0,0,1,.45,0c.08,0,0,0-.16.06L65,.69a1.52,1.52,0,0,1-.44,0C64.5.66,64.57.63,64.74.62Z"/><path d="M59,.85c.07-.07.13-.14-.22-.23l1-.07a2.07,2.07,0,0,0,.74,0C60.81.7,60.2.78,59,.85Z" fill-rule="evenodd"/><path d="M52.6.66c.28.22-1.75.07-2.49.18.15-.08.12-.23-.72-.2C49.59.38,51.73.67,52.6.66Z" fill-rule="evenodd"/><path d="M43.71.65A8.76,8.76,0,0,1,45.94.57C46.56.75,44.28.84,43.71.65Z" fill-rule="evenodd"/><path d="M40,.84a10.41,10.41,0,0,1-2.71,0A7.78,7.78,0,0,1,40,.84Z" fill-rule="evenodd"/><path d="M37,.72c-2.18.1-1.15-.3.51-.2C37.68.6,36.72.64,37,.72Z" fill-rule="evenodd"/><path d="M21.22.72c-1.45.12-2.36.05-1.95-.14A4.21,4.21,0,0,1,21.22.72Z" fill-rule="evenodd"/><path d="M.26,23.38c.14-.69.08,1.54,0,1.73C.2,25.6.12,24.06.26,23.38Z" fill-rule="evenodd"/><path d="M.38,26.11c.11,1-.08,1.17,0,2C.18,28.48.21,26.17.38,26.11Z" fill-rule="evenodd"/><path d="M.29,38.45c-.2.11-.11-2.39.05-2.71a17.84,17.84,0,0,1-.05,2.71" fill-rule="evenodd"/><path d="M.28,42.9c.27.33.06,2.82-.07,3.45C.15,45.43.05,45.59,0,44.6.07,44,.37,43.94.28,42.9Z" fill-rule="evenodd"/><path d="M.3,55.5a20.13,20.13,0,0,0,.08,2.23C.12,59.09,0,55.87.3,55.5Z" fill-rule="evenodd"/><path d="M.36,59.7c0,.38,0,2.52.14,2,0,1.57-.25,0-.38,1.44A9.12,9.12,0,0,1,.36,59.7Z" fill-rule="evenodd"/><path d="M.33,64.89a23.34,23.34,0,0,1-.14,4.93C0,68.34.07,67.34,0,66.09Z" fill-rule="evenodd"/><path d="M.64,73.82c-.18.39-.34.4-.49-.06C0,72.58.21,72.29.14,71.3.37,70.43.52,71.7.64,73.82Z" fill-rule="evenodd"/><path d="M.25,78.47l-.07-1L.3,77l.08,1Z" fill-rule="evenodd"/><path d="M.29,80.2c-.1.17-.14-1-.21-1.75C.24,78,.33,79.23.29,80.2Z" fill-rule="evenodd"/><path d="M.26,80.94c.24-.12.09,2.07.12,2.73C.07,84,.3,82.13.26,80.94Z" fill-rule="evenodd"/><path d="M.32,85.15c-.34-.62.08-2.41,0,0Z" fill-rule="evenodd"/><path d="M.63,91.6c-.09-.17-.19,0-.3.46a20.74,20.74,0,0,1,0-4.44C.5,88,.43,89.91.63,91.6Z" fill-rule="evenodd"/><path d="M.79,96.07c0,2-.27-.67-.43.94L.18,94.52C.44,93.56.57,96.06.79,96.07Z" fill-rule="evenodd"/><path d="M.62,111.86c0,.5.07,1,.11,1.49-.13-.33-.29.24-.22,1.46A5.79,5.79,0,0,1,.62,111.86Z" fill-rule="evenodd"/><path d="M57,.83c-.62,0-.52,0-.24-.07A9.6,9.6,0,0,0,55.31.71C55.19.47,57.38.61,58,.59,58.28.69,56.63.72,57,.83Z" fill-rule="evenodd"/><path d="M27.42.52c-.33.36-1.85-.1-3,0C24.5.32,26.51.59,27.42.52Z" fill-rule="evenodd"/><path d="M9.18,4c-.46.29-1,.66-1.48,1A10.71,10.71,0,0,1,6.39,6c.55-.61.92-.85.57-.47A8.84,8.84,0,0,1,9.18,4Z" fill-rule="evenodd"/><path d="M.33,50.32c.11-.14,0,.73.11,1.49-.13.61-.23.36-.3-.77C.24,50.52.37,51.26.33,50.32Z" fill-rule="evenodd"/><path d="M30.76.65h0l.87,0,.45,0a2.65,2.65,0,0,1,.66,0c.12,0,0,.07-.23.09h0l-.68,0-.73,0a2.21,2.21,0,0,1-.63,0C30.43.71,30.54.67,30.76.65Z"/><path d="M1.27,14a4,4,0,0,1,.17-.48l.45-1.16c.17-.37.35-.63.39-.58a2.31,2.31,0,0,1-.25.77L1.49,14c-.16.36-.24.6-.27.47A1,1,0,0,1,1.27,14Z"/><path d="M.25,19.68a3.18,3.18,0,0,1,.07-.78l.15-.48c.05-.13.09,0,.09.28a2.64,2.64,0,0,1-.07.77L.34,20C.3,20.09.26,20,.25,19.68Z"/><path d="M.34,108.81c0-.1,0-.23,0-.36a12.67,12.67,0,0,1,0-1.29c0-.34.08-.53.13-.32a3.48,3.48,0,0,1,.05.91v.17a5.19,5.19,0,0,0,0,.63c0,.4-.05.7-.1.68S.35,109.05.34,108.81Z"/><path d="M.62,119.79.51,118.3a1.59,1.59,0,0,1,0-.46c0-.08,0,0,.06.16l.1,1.5a1.58,1.58,0,0,1,0,.45C.66,120,.63,120,.62,119.79Z"/><path d="M.85,123.8c-.07-.07-.14-.13-.23.22l-.07-1a2.06,2.06,0,0,0,0-.74C.7,122,.78,122.6.85,123.8Z" fill-rule="evenodd"/><path d="M.66,130.2c.22-.28.07,1.75.18,2.49-.08-.15-.23-.11-.2.73C.38,133.21.67,131.07.66,130.2Z" fill-rule="evenodd"/><path d="M.65,139.09a8.71,8.71,0,0,1-.08-2.22C.75,136.24.84,138.53.65,139.09Z" fill-rule="evenodd"/><path d="M.84,142.82a10.41,10.41,0,0,1,0,2.71A7.78,7.78,0,0,1,.84,142.82Z" fill-rule="evenodd"/><path d="M.72,145.77c.1,2.18-.3,1.16-.2-.51C.6,145.12.64,146.08.72,145.77Z" fill-rule="evenodd"/><path d="M.72,161.58c.15,1.44,0,2.39-.18,2A5.09,5.09,0,0,1,.72,161.58Z" fill-rule="evenodd"/><path d="M.26,196.86c.14-.7.08,1.54,0,1.73C.2,199.08.12,197.54.26,196.86Z" fill-rule="evenodd"/><path d="M.38,199.59c.11,1-.08,1.17,0,2C.18,202,.21,199.65.38,199.59Z" fill-rule="evenodd"/><path d="M.29,211.93c-.2.11-.11-2.39.05-2.71a17.84,17.84,0,0,1-.05,2.71" fill-rule="evenodd"/><path d="M.28,216.38c.27.33.06,2.82-.07,3.45-.06-.92-.16-.76-.21-1.75C.07,217.46.37,217.42.28,216.38Z" fill-rule="evenodd"/><path d="M.3,229a20.13,20.13,0,0,0,.08,2.23C.12,232.56,0,229.35.3,229Z" fill-rule="evenodd"/><path d="M.36,233.18c0,.38,0,2.52.14,2,0,1.57-.25,0-.38,1.44A9.12,9.12,0,0,1,.36,233.18Z" fill-rule="evenodd"/><path d="M.33,238.37a23.34,23.34,0,0,1-.14,4.93C0,241.82.07,240.81,0,239.57Z" fill-rule="evenodd"/><path d="M.64,247.3c-.18.39-.34.4-.49-.06-.14-1.18.06-1.47,0-2.47C.37,243.91.52,245.18.64,247.3Z" fill-rule="evenodd"/><path d="M.25,252l-.07-1,.12-.48.08,1Z" fill-rule="evenodd"/><path d="M.29,253.68c-.1.17-.14-1.05-.21-1.75C.24,251.51.33,252.71.29,253.68Z" fill-rule="evenodd"/><path d="M.26,254.42c.24-.12.09,2.07.12,2.73C.07,257.52.3,255.61.26,254.42Z" fill-rule="evenodd"/><path d="M.32,258.63c-.34-.63.08-2.41,0,0Z" fill-rule="evenodd"/><path d="M.63,265.08c-.09-.17-.19,0-.3.46a20.85,20.85,0,0,1,0-4.45C.5,261.51.43,263.39.63,265.08Z" fill-rule="evenodd"/><path d="M.79,269.54c0,2-.27-.66-.43.95L.18,268C.44,267,.57,269.54.79,269.54Z" fill-rule="evenodd"/><path d="M.62,285.34l.11,1.49c-.13-.33-.29.24-.22,1.46A5.79,5.79,0,0,1,.62,285.34Z" fill-rule="evenodd"/><path d="M.83,125.77c0,.62,0,.52-.07.25a9.47,9.47,0,0,0-.05,1.47c-.24.12-.1-2.07-.12-2.73C.69,124.53.72,126.17.83,125.77Z" fill-rule="evenodd"/><path d="M.52,155.39c.36.32-.1,1.84,0,3C.32,158.3.59,156.29.52,155.39Z" fill-rule="evenodd"/><path d="M.67,174.42a33.34,33.34,0,0,1-.24,3.43c-.08-.81,0-1.24,0-.73A15.49,15.49,0,0,1,.67,174.42Z" fill-rule="evenodd"/><path d="M.33,223.8c.11-.14,0,.73.11,1.49-.13.61-.23.35-.3-.77C.24,224,.37,224.74.33,223.8Z" fill-rule="evenodd"/><path d="M.65,152v0l0-.86,0-.46a2.67,2.67,0,0,1,0-.66c0-.12.07,0,.09.23h0l0,.68,0,.73a2.21,2.21,0,0,1,0,.63C.71,152.38.67,152.27.65,152Z"/><path d="M.32,187.44c0-.15,0-.33,0-.51l0-1.23c0-.41,0-.72.1-.69a2,2,0,0,1,.09.81c0,.46,0,1,0,1.48s-.06.65-.12.54A1.62,1.62,0,0,1,.32,187.44Z"/><path d="M.23,193.16a3,3,0,0,1,0-.77l.13-.49c0-.13.08,0,.11.28a3.48,3.48,0,0,1,0,.77l-.13.48C.3,193.57.25,193.45.23,193.16Z"/><path d="M.34,282.29c0-.1,0-.23,0-.36a12.67,12.67,0,0,1,0-1.29c0-.35.08-.53.13-.33a3.59,3.59,0,0,1,.05.92v.17a5.19,5.19,0,0,0,0,.63c0,.4-.05.7-.1.68S.35,282.53.34,282.29Z"/><path d="M.62,293.27l-.11-1.5a1.54,1.54,0,0,1,0-.45c0-.08,0,0,.06.16l.1,1.5a1.61,1.61,0,0,1,0,.45C.66,293.51.63,293.44.62,293.27Z"/><path d="M.85,299.59c-.07-.07-.14-.13-.23.22l-.07-1a2.06,2.06,0,0,0,0-.74C.7,297.77.78,298.38.85,299.59Z" fill-rule="evenodd"/><path d="M.66,306c.22-.28.07,1.75.18,2.49-.08-.15-.23-.12-.2.72C.38,309,.67,306.86.66,306Z" fill-rule="evenodd"/><path d="M.65,314.88a8.76,8.76,0,0,1-.08-2.23C.75,312,.84,314.31.65,314.88Z" fill-rule="evenodd"/><path d="M.84,318.6a10.47,10.47,0,0,1,0,2.72A7.86,7.86,0,0,1,.84,318.6Z" fill-rule="evenodd"/><path d="M.72,321.56c.1,2.18-.3,1.15-.2-.52C.6,320.9.64,321.87.72,321.56Z" fill-rule="evenodd"/><path d="M.72,337.37c.15,1.44,0,2.38-.18,1.95A5,5,0,0,1,.72,337.37Z" fill-rule="evenodd"/><path d="M.26,372.64c.14-.69.08,1.55,0,1.74C.2,374.86.12,373.32.26,372.64Z" fill-rule="evenodd"/><path d="M.38,375.37c.11,1-.08,1.17,0,2C.18,377.74.21,375.43.38,375.37Z" fill-rule="evenodd"/><path d="M.29,387.71c-.2.11-.11-2.39.05-2.71a17.84,17.84,0,0,1-.05,2.71" fill-rule="evenodd"/><path d="M.28,392.16c.27.33.06,2.82-.07,3.46-.06-.93-.16-.76-.21-1.76C.07,393.24.37,393.2.28,392.16Z" fill-rule="evenodd"/><path d="M.3,404.76A20.3,20.3,0,0,0,.38,407C.12,408.35,0,405.14.3,404.76Z" fill-rule="evenodd"/><path d="M.36,409c0,.38,0,2.52.14,2,0,1.58-.25.05-.38,1.44A9,9,0,0,1,.36,409Z" fill-rule="evenodd"/><path d="M.33,414.15a23.31,23.31,0,0,1-.14,4.93C0,417.6.07,416.6,0,415.35Z" fill-rule="evenodd"/><path d="M.64,423.08c-.18.39-.34.41-.49-.05-.14-1.19.06-1.48,0-2.47C.37,419.7.52,421,.64,423.08Z" fill-rule="evenodd"/><path d="M.67,427.75c-.09-.33-.15-.66-.23-1l0-.5.22,1C.7,427.41.67,427.58.67,427.75Z" fill-rule="evenodd"/><path d="M1.15,429.43c0,.2-.41-1-.65-1.67C.55,427.32.94,428.47,1.15,429.43Z" fill-rule="evenodd"/><path d="M1.36,430.14c.1-.09.3.39.5,1s.54,1.21.68,1.51C2.45,433.1,1.74,431.27,1.36,430.14Z" fill-rule="evenodd"/><path d="M3.23,433.94c-.64-.36-1.17-2.13,0,0Z" fill-rule="evenodd"/><path d="M7.64,438.61c-.18-.06-.13.16.17.51-.36-.23-.67-.53-1-.79a9.9,9.9,0,0,1-1-.83A6,6,0,0,1,4.65,436,32.13,32.13,0,0,0,7.64,438.61Z" fill-rule="evenodd"/><path d="M11.41,440.87c1.81.86-.72-.05.66.79a17.49,17.49,0,0,1-2.3-1C9.08,439.93,11.28,441.13,11.41,440.87Z" fill-rule="evenodd"/><path d="M26.72,443.11l1.49-.11c-.33.13.24.29,1.46.22A5.58,5.58,0,0,1,26.72,443.11Z" fill-rule="evenodd"/><path d="M.83,301.56c0,.61,0,.52-.07.24a9.6,9.6,0,0,0-.05,1.48c-.24.12-.1-2.07-.12-2.73C.69,300.31.72,302,.83,301.56Z" fill-rule="evenodd"/><path d="M.52,331.17c.36.32-.1,1.84,0,3C.32,334.09.59,332.07.52,331.17Z" fill-rule="evenodd"/><path d="M.67,350.21a33.55,33.55,0,0,1-.24,3.43c-.08-.82,0-1.25,0-.73A15.4,15.4,0,0,1,.67,350.21Z" fill-rule="evenodd"/><path d="M.33,399.58c.11-.14,0,.73.11,1.49-.13.62-.23.36-.3-.77C.24,399.78.37,400.53.33,399.58Z" fill-rule="evenodd"/><path d="M.65,327.83v-.05l0-.87,0-.46a2.67,2.67,0,0,1,0-.66c0-.11.07,0,.09.24h0l0,.69,0,.73a2.21,2.21,0,0,1,0,.63C.71,328.16.67,328.05.65,327.83Z"/><path d="M.32,363.23c0-.15,0-.34,0-.51l0-1.24c0-.41,0-.72.1-.68a2,2,0,0,1,.09.81c0,.45,0,1,0,1.48s-.06.64-.12.54A1.62,1.62,0,0,1,.32,363.23Z"/><path d="M.23,369a3,3,0,0,1,0-.78l.13-.48c0-.14.08,0,.11.27a3.58,3.58,0,0,1,0,.78l-.13.48C.3,369.36.25,369.24.23,369Z"/><path d="M23.67,443.39l-.36,0a12.53,12.53,0,0,1-1.29-.05c-.35,0-.53-.08-.33-.13a3.59,3.59,0,0,1,.92-.05h.16a5.28,5.28,0,0,0,.64,0c.4,0,.7.05.68.1S23.9,443.38,23.67,443.39Z"/><path d="M34.65,443.11l-1.5.11a2.07,2.07,0,0,1-.45,0c-.09,0,0,0,.16-.07l1.49-.1a1.58,1.58,0,0,1,.45,0C34.88,443.08,34.82,443.1,34.65,443.11Z"/><path d="M39.81,442.88c-.07.07-.13.15.22.23l-1,.07a2.07,2.07,0,0,0-.74,0C38,443,38.61,443,39.81,442.88Z" fill-rule="evenodd"/><path d="M46.21,443.07c-.28-.21,1.75-.07,2.49-.18-.15.08-.12.24.72.2C49.22,443.35,47.08,443.07,46.21,443.07Z" fill-rule="evenodd"/><path d="M53.17,443.18a1.38,1.38,0,0,1-.29.08l0,.24a4.79,4.79,0,0,1,1-.1v-.23c-.27,0-.59,0-1,0s.26-.18,1-.19l0,.62a6.77,6.77,0,0,1-1,.05l0-.52A1,1,0,0,1,53.17,443.18Z" fill-rule="evenodd"/><path d="M56.93,443.09a8.81,8.81,0,0,1,2.71.3A9.06,9.06,0,0,1,56.93,443.09Z" fill-rule="evenodd"/><path d="M59.87,443.49c2.19.23,1.1.46-.53.13C59.21,443.52,60.17,443.62,59.87,443.49Z" fill-rule="evenodd"/><path d="M75,448.24c1.36.52,2.09,1.18,1.64,1.09A6,6,0,0,1,75,448.24Z" fill-rule="evenodd"/><path d="M99.92,472.88c-.38-.59,1.14,1.05,1.27,1.19C101.47,474.49,100.29,473.47,99.92,472.88Z" fill-rule="evenodd"/><path d="M102,474.7c.8.57.84.83,1.48,1.32C103.63,476.42,101.89,474.88,102,474.7Z" fill-rule="evenodd"/><path d="M112.29,481.42c0,.09-.57-.06-1.14-.38a7,7,0,0,1-1.3-.82c1.33.45,1.43.87,2.44,1.2" fill-rule="evenodd"/><path d="M116.49,482.91a5.2,5.2,0,0,1,1.59.33,12.77,12.77,0,0,1,1.76.58c-.91-.14-.77,0-1.77-.17C117.47,483.45,117.52,483.13,116.49,482.91Z" fill-rule="evenodd"/><path d="M129,484.51a11,11,0,0,0,2.24-.19c.68.06.23.21-.45.31A3.86,3.86,0,0,1,129,484.51Z" fill-rule="evenodd"/><path d="M133.19,484.14c.38,0,2.48-.42,1.94-.47,1.54-.32.1.24,1.5.12A8.06,8.06,0,0,1,133.19,484.14Z" fill-rule="evenodd"/><path d="M138.28,483.15c1-.34,1.89-.58,2.65-.85a19.53,19.53,0,0,1,2.1-.56,32.74,32.74,0,0,1-3.49,1.41Z" fill-rule="evenodd"/><path d="M146.44,479.59c.42,0,.52.1.19.46a3.5,3.5,0,0,1-1.15.64,8.28,8.28,0,0,0-1.08.48c-.44.07-.38-.06,0-.33S145.57,480.2,146.44,479.59Z" fill-rule="evenodd"/><polygon points="150.58 477.44 149.8 478.08 149.33 478.25 150.11 477.61 150.58 477.44" fill-rule="evenodd"/><path d="M151.94,476.36c.2,0-.72.78-1.28,1.22C150.21,477.68,151.18,477,151.94,476.36Z" fill-rule="evenodd"/><path d="M152.54,475.92c-.24-.1,1.51-1.42,2-1.91C155,474,153.43,475.13,152.54,475.92Z" fill-rule="evenodd"/><path d="M155.6,473c-.19.69-1.78,1.63,0,0Z" fill-rule="evenodd"/><path d="M159.75,468.06c-.05.19.14.12.52-.15a17.15,17.15,0,0,1-3,3.32C157.48,470.82,158.8,469.47,159.75,468.06Z" fill-rule="evenodd"/><path d="M162.51,464.56c1.3-1.56-.23.67.93-.45l-1.47,2C161.16,466.7,162.67,464.71,162.51,464.56Z" fill-rule="evenodd"/><path d="M173.63,453.32l1.11-1c-.18.31.37.09,1.32-.67,0,.15-.54.59-1.12,1S173.78,453.38,173.63,453.32Z" fill-rule="evenodd"/><path d="M41.78,442.9c.62,0,.52.05.24.07a10.88,10.88,0,0,0,1.48.06c.12.23-2.07.09-2.73.11C40.54,443,42.18,443,41.78,442.9Z" fill-rule="evenodd"/><path d="M69.19,446c.43-.26,1.69.74,2.79,1C71.83,447.22,70.08,446.16,69.19,446Z" fill-rule="evenodd"/><path d="M85.44,455.71a21.53,21.53,0,0,1,2.24,2.62c-.61-.55-.87-.89-.48-.55A21.82,21.82,0,0,1,85.44,455.71Z" fill-rule="evenodd"/><path d="M123.8,484.31c-.13-.11.73,0,1.5,0,.6.17.34.25-.8.25C124,484.42,124.74,484.36,123.8,484.31Z" fill-rule="evenodd"/><path d="M66,444.81h0l-.85-.18-.45-.09a2.67,2.67,0,0,1-.64-.18c-.1-.06,0-.08.25,0h0l.67.13.73.15a2.4,2.4,0,0,1,.6.2C66.37,444.86,66.25,444.86,66,444.81Z"/><path d="M93.78,465.72a4.77,4.77,0,0,1-.33-.39l-.76-1c-.25-.32-.41-.58-.35-.59s.33.25.59.56l.91,1.17c.24.32.36.54.25.49A1.4,1.4,0,0,1,93.78,465.72Z"/><path d="M97.39,470.18a2.75,2.75,0,0,1-.49-.61l-.22-.45c-.06-.13.06-.07.26.14a3,3,0,0,1,.48.61l.23.44C97.71,470.44,97.59,470.38,97.39,470.18Z"/><path d="M171.49,455.51l-.26.25c-.47.44-.71.65-1,.85s-.45.3-.33.13a3.69,3.69,0,0,1,.63-.67l.13-.1c.15-.12.22-.19.47-.42s.56-.44.58-.38S171.65,455.34,171.49,455.51Z"/><path d="M180.21,448.85l-1.24.85a2.11,2.11,0,0,1-.4.22c-.08,0,0,0,.1-.14l1.24-.85a1.56,1.56,0,0,1,.4-.21C180.39,448.69,180.34,448.75,180.21,448.85Z"/><path d="M185.28,446.1c0,.09-.07.17.29.12-.29.15-.6.28-.89.45a2,2,0,0,0-.68.29C183.68,447,184.18,446.61,185.28,446.1Z" fill-rule="evenodd"/><path d="M191.45,444.24c-.33-.15,1.7-.46,2.42-.7-.14.1-.08.25.75.08C194.45,443.88,192.31,444,191.45,444.24Z" fill-rule="evenodd"/><path d="M200.3,443.14a9.76,9.76,0,0,1-2.23.16C197.43,443.13,199.73,442.94,200.3,443.14Z" fill-rule="evenodd"/><path d="M201.94,443.71l-.41,0,0-.81a8.09,8.09,0,0,1,2.3.06,11.5,11.5,0,0,1-2.3.05l0,.59A1.71,1.71,0,0,1,201.94,443.71Z" fill-rule="evenodd"/><path d="M204.11,443c2.18-.1,1.16.3-.51.2C203.46,443.13,204.42,443.09,204.11,443Z" fill-rule="evenodd"/><path d="M219.92,443c1.44-.15,2.39,0,2,.18A5.09,5.09,0,0,1,219.92,443Z" fill-rule="evenodd"/><path d="M252.36,434.56c-.49.52.74-1.36.86-1.51C253.56,432.66,252.84,434.06,252.36,434.56Z" fill-rule="evenodd"/><path d="M253.59,432.11c.34-.92.55-1,.78-1.82.15-.16,0,.31-.17.81A2.51,2.51,0,0,1,253.59,432.11Z" fill-rule="evenodd"/><path d="M255.6,420c.2-.11.11,2.39,0,2.71a17.84,17.84,0,0,1,0-2.71" fill-rule="evenodd"/><path d="M255.6,415.58c-.26-.33-.06-2.82.08-3.46.06.93.15.76.21,1.76C255.82,414.5,255.52,414.54,255.6,415.58Z" fill-rule="evenodd"/><path d="M255.59,403a20.3,20.3,0,0,0-.08-2.24C255.77,399.39,255.92,402.6,255.59,403Z" fill-rule="evenodd"/><path d="M255.53,398.77c0-.38,0-2.52-.14-2,0-1.58.25,0,.38-1.44A9,9,0,0,1,255.53,398.77Z" fill-rule="evenodd"/><path d="M255.56,393.59a23.31,23.31,0,0,1,.14-4.93c.15,1.48.12,2.48.18,3.73Z" fill-rule="evenodd"/><path d="M255.24,384.66c.18-.39.35-.41.5,0,.14,1.19-.06,1.48,0,2.47C255.52,388,255.36,386.77,255.24,384.66Z" fill-rule="evenodd"/><path d="M255.64,380l.07,1-.13.49c0-.34,0-.67-.07-1Z" fill-rule="evenodd"/><path d="M255.6,378.28c.1-.18.14,1,.2,1.75C255.65,380.45,255.56,379.25,255.6,378.28Z" fill-rule="evenodd"/><path d="M255.63,377.53c-.24.13-.1-2.06-.12-2.72C255.82,374.43,255.59,376.35,255.63,377.53Z" fill-rule="evenodd"/><path d="M255.57,373.33c.34.62-.08,2.41,0,0Z" fill-rule="evenodd"/><path d="M255.26,366.87c.09.18.19,0,.3-.46a20.84,20.84,0,0,1,0,4.45C255.39,370.44,255.46,368.56,255.26,366.87Z" fill-rule="evenodd"/><path d="M255.1,362.41c0-2,.26.67.42-.94l.18,2.49C255.45,364.92,255.32,362.42,255.1,362.41Z" fill-rule="evenodd"/><path d="M255.27,346.62l-.11-1.5c.13.33.28-.24.22-1.45A5.8,5.8,0,0,1,255.27,346.62Z" fill-rule="evenodd"/><path d="M187.14,445.38c.58-.22.51-.12.25,0a11.36,11.36,0,0,0,1.43-.43c.19.2-1.95.73-2.55,1C186,446,187.54,445.34,187.14,445.38Z" fill-rule="evenodd"/><path d="M213.73,443.21c.32-.36,1.84.11,3,0C216.64,443.42,214.63,443.14,213.73,443.21Z" fill-rule="evenodd"/><path d="M232.76,443.06c1.12.08,2.57.07,3.44.22-.82.12-1.25,0-.74,0A15.49,15.49,0,0,1,232.76,443.06Z" fill-rule="evenodd"/><path d="M255.56,408.16c-.11.14,0-.73-.11-1.49.13-.62.23-.36.3.77C255.65,408,255.52,407.21,255.56,408.16Z" fill-rule="evenodd"/><path d="M210.38,443.08h0l-.86,0H209a2.67,2.67,0,0,1-.66,0c-.12,0,0-.07.24-.09h0l.68,0,.73,0a2.21,2.21,0,0,1,.63,0C210.72,443,210.61,443.06,210.38,443.08Z"/><path d="M245.42,440.91a2.12,2.12,0,0,1-.45.25l-1.13.52c-.37.19-.68.23-.67.17a3.46,3.46,0,0,1,.7-.41l1.34-.62c.35-.2.58-.28.52-.18A1.59,1.59,0,0,1,245.42,440.91Z"/><path d="M250,437.48a2.23,2.23,0,0,1-.59.53l-.44.23c-.13.06-.07-.05.13-.26a4.33,4.33,0,0,1,.59-.51l.41-.26C250.27,437.13,250.22,437.25,250,437.48Z"/><path d="M255.55,349.66c0,.11,0,.23,0,.36,0,.65,0,1,0,1.29s-.09.53-.13.33a3.14,3.14,0,0,1,0-.92v-.16c0-.19,0-.29,0-.63s0-.71.1-.68A.82.82,0,0,1,255.55,349.66Z"/><path d="M255.27,338.68l.11,1.5a2.08,2.08,0,0,1,0,.46c0,.08-.05,0-.06-.17l-.11-1.49a2,2,0,0,1,0-.45C255.23,338.45,255.26,338.52,255.27,338.68Z"/><path d="M255,334.67c.07.07.14.14.23-.22l.07,1a2.24,2.24,0,0,0,0,.74C255.19,336.49,255.11,335.88,255,334.67Z" fill-rule="evenodd"/><path d="M255.23,328.27c-.22.29-.08-1.75-.18-2.49.08.15.23.12.19-.72C255.51,325.27,255.22,327.4,255.23,328.27Z" fill-rule="evenodd"/><path d="M255.24,319.38a8.76,8.76,0,0,1,.08,2.23C255.13,322.23,255,320,255.24,319.38Z" fill-rule="evenodd"/><path d="M255.05,315.66a10.38,10.38,0,0,1,0-2.71A7.79,7.79,0,0,1,255.05,315.66Z" fill-rule="evenodd"/><path d="M255.16,312.7c-.09-2.18.3-1.15.21.52C255.29,313.36,255.25,312.39,255.16,312.7Z" fill-rule="evenodd"/><path d="M255.16,296.89c-.14-1.44,0-2.38.19-1.95A4.81,4.81,0,0,1,255.16,296.89Z" fill-rule="evenodd"/><path d="M255.63,261.62c-.14.69-.08-1.55,0-1.74C255.68,259.4,255.77,260.94,255.63,261.62Z" fill-rule="evenodd"/><path d="M255.51,258.89c-.11-1,.07-1.17,0-2C255.71,256.52,255.68,258.83,255.51,258.89Z" fill-rule="evenodd"/><path d="M255.6,246.55c.2-.11.11,2.39,0,2.71a17.84,17.84,0,0,1,0-2.71" fill-rule="evenodd"/><path d="M255.6,242.1c-.26-.33-.06-2.82.08-3.45.06.92.15.75.21,1.75C255.82,241,255.52,241.06,255.6,242.1Z" fill-rule="evenodd"/><path d="M255.59,229.5a20.3,20.3,0,0,0-.08-2.24C255.77,225.91,255.92,229.12,255.59,229.5Z" fill-rule="evenodd"/><path d="M255.53,225.29c0-.37,0-2.51-.14-2,0-1.58.25-.05.38-1.44A9,9,0,0,1,255.53,225.29Z" fill-rule="evenodd"/><path d="M255.56,220.11a23.34,23.34,0,0,1,.14-4.93c.15,1.48.12,2.48.18,3.73Z" fill-rule="evenodd"/><path d="M255.24,211.18c.18-.39.35-.41.5,0,.14,1.19-.06,1.48,0,2.47C255.52,214.56,255.36,213.29,255.24,211.18Z" fill-rule="evenodd"/><path d="M255.64,206.53l.07,1-.13.48c0-.34,0-.67-.07-1Z" fill-rule="evenodd"/><path d="M255.6,204.8c.1-.18.14,1,.2,1.75C255.65,207,255.56,205.77,255.6,204.8Z" fill-rule="evenodd"/><path d="M255.63,204.06c-.24.12-.1-2.07-.12-2.73C255.82,201,255.59,202.87,255.63,204.06Z" fill-rule="evenodd"/><path d="M255.57,199.85c.34.62-.08,2.41,0,0Z" fill-rule="evenodd"/><path d="M255.26,193.39c.09.18.19,0,.3-.46a20.82,20.82,0,0,1,0,4.45C255.39,197,255.46,195.08,255.26,193.39Z" fill-rule="evenodd"/><path d="M255.1,188.93c0-2,.26.67.42-.94l.18,2.49C255.45,191.44,255.32,188.94,255.1,188.93Z" fill-rule="evenodd"/><path d="M255.27,173.14l-.11-1.5c.13.33.28-.24.22-1.45A5.79,5.79,0,0,1,255.27,173.14Z" fill-rule="evenodd"/><path d="M255.06,332.7c0-.61.05-.52.07-.24a9.55,9.55,0,0,0,.05-1.48c.24-.12.09,2.07.12,2.73C255.2,334,255.17,332.31,255.06,332.7Z" fill-rule="evenodd"/><path d="M255.37,303.09c-.37-.32.1-1.84-.06-3C255.57,300.17,255.3,302.19,255.37,303.09Z" fill-rule="evenodd"/><path d="M255.21,284.05c.1-1.11,0-2.57.24-3.43.09.82,0,1.25,0,.73A14.32,14.32,0,0,1,255.21,284.05Z" fill-rule="evenodd"/><path d="M255.56,234.68c-.11.14,0-.73-.11-1.49.13-.62.23-.36.3.77C255.65,234.48,255.52,233.73,255.56,234.68Z" fill-rule="evenodd"/><path d="M255.23,306.43v.05c0,.35,0,.62,0,.87l0,.46a2.67,2.67,0,0,1,0,.66c0,.11-.08,0-.09-.24h0l0-.69c0-.21,0-.45,0-.73a2.21,2.21,0,0,1,0-.63C255.18,306.1,255.22,306.21,255.23,306.43Z"/><path d="M255.56,271a4.35,4.35,0,0,1,0,.52c0,.43,0,.85,0,1.23s0,.72-.1.68a2.06,2.06,0,0,1-.1-.81c0-.45,0-1,0-1.48s.06-.64.12-.53A1.19,1.19,0,0,1,255.56,271Z"/><path d="M255.66,265.31a3.58,3.58,0,0,1,0,.78l-.13.48c0,.14-.09,0-.11-.27a3.58,3.58,0,0,1,0-.78l.13-.48C255.59,264.9,255.64,265,255.66,265.31Z"/><path d="M255.55,176.18c0,.11,0,.23,0,.36,0,.65,0,1,0,1.29s-.09.53-.13.33a3.09,3.09,0,0,1,0-.91v-.17c0-.19,0-.29,0-.63s0-.71.1-.68A.82.82,0,0,1,255.55,176.18Z"/><path d="M255.27,165.2l.11,1.5a2,2,0,0,1,0,.46c0,.08-.05,0-.06-.16l-.11-1.5a2,2,0,0,1,0-.45C255.23,165,255.26,165,255.27,165.2Z"/><path d="M255,158.89c.07.07.14.13.23-.22l.07,1a2.27,2.27,0,0,0,0,.74C255.19,160.7,255.11,160.09,255,158.89Z" fill-rule="evenodd"/><path d="M255.23,152.49c-.22.28-.08-1.75-.18-2.49.08.15.23.12.19-.72C255.51,149.48,255.22,151.62,255.23,152.49Z" fill-rule="evenodd"/><path d="M255.24,143.6a8.76,8.76,0,0,1,.08,2.23C255.13,146.45,255,144.17,255.24,143.6Z" fill-rule="evenodd"/><path d="M255.05,139.87a10.41,10.41,0,0,1,0-2.71A7.78,7.78,0,0,1,255.05,139.87Z" fill-rule="evenodd"/><path d="M255.16,136.92c-.09-2.18.3-1.15.21.51C255.29,137.57,255.25,136.61,255.16,136.92Z" fill-rule="evenodd"/><path d="M255.16,121.11c-.14-1.44,0-2.39.19-2A4.86,4.86,0,0,1,255.16,121.11Z" fill-rule="evenodd"/><path d="M255.63,85.83c-.14.7-.08-1.54,0-1.73C255.68,83.61,255.77,85.15,255.63,85.83Z" fill-rule="evenodd"/><path d="M255.51,83.11c-.11-1,.07-1.17,0-2C255.71,80.73,255.68,83,255.51,83.11Z" fill-rule="evenodd"/><path d="M255.6,70.76c.2-.1.11,2.39,0,2.71a17.84,17.84,0,0,1,0-2.71" fill-rule="evenodd"/><path d="M255.6,66.32c-.26-.33-.06-2.83.08-3.46.06.92.15.76.21,1.76C255.82,65.24,255.52,65.27,255.6,66.32Z" fill-rule="evenodd"/><path d="M255.59,53.72a20.22,20.22,0,0,0-.08-2.24C255.77,50.13,255.92,53.34,255.59,53.72Z" fill-rule="evenodd"/><path d="M255.53,49.51c0-.38,0-2.52-.14-2,0-1.57.25,0,.38-1.44A9.12,9.12,0,0,1,255.53,49.51Z" fill-rule="evenodd"/><path d="M255.56,44.32a23.24,23.24,0,0,1,.14-4.92c.15,1.47.12,2.48.18,3.72Z" fill-rule="evenodd"/><path d="M255.24,35.4c.18-.4.35-.41.5.05.14,1.18-.06,1.48,0,2.47C255.52,38.78,255.36,37.51,255.24,35.4Z" fill-rule="evenodd"/><path d="M255.64,30.74l.07,1-.13.48c0-.33,0-.66-.07-1Z" fill-rule="evenodd"/><path d="M255.6,29c.1-.17.14,1,.2,1.75C255.65,31.18,255.56,30,255.6,29Z" fill-rule="evenodd"/><path d="M255.63,28.27c-.24.12-.1-2.07-.12-2.73C255.82,25.17,255.59,27.08,255.63,28.27Z" fill-rule="evenodd"/><path d="M255.57,24.07c.34.62-.08,2.41,0,0Z" fill-rule="evenodd"/><path d="M255.1,17.64c.11.16.18,0,.22-.49a12,12,0,0,1,.23,4.45,7.74,7.74,0,0,1-.13-1.52A15.73,15.73,0,0,0,255.1,17.64Z" fill-rule="evenodd"/><path d="M253.9,13.41c-.69-1.88.48.53.07-1a23.53,23.53,0,0,1,1,2.31c0,.51-.19.15-.4-.31S254,13.38,253.9,13.41Z" fill-rule="evenodd"/><path d="M243.62,2.27a14.47,14.47,0,0,0-1.42-.43c.18,0,.15-.1-.08-.23a3.36,3.36,0,0,0-1.23-.41C241.13.93,243.61,1.92,243.62,2.27Z" fill-rule="evenodd"/><path d="M255.06,156.92c0-.62.05-.52.07-.24a9.6,9.6,0,0,0,.05-1.48c.24-.12.09,2.07.12,2.73C255.2,158.16,255.17,156.52,255.06,156.92Z" fill-rule="evenodd"/><path d="M255.37,127.31c-.37-.33.1-1.85-.06-3C255.57,124.39,255.3,126.4,255.37,127.31Z" fill-rule="evenodd"/><path d="M255.21,108.27c.1-1.12,0-2.57.24-3.43.09.81,0,1.24,0,.73A14.47,14.47,0,0,1,255.21,108.27Z" fill-rule="evenodd"/><path d="M255.56,58.89c-.11.15,0-.73-.11-1.49.13-.61.23-.35.3.77C255.65,58.7,255.52,58,255.56,58.89Z" fill-rule="evenodd"/><path d="M255.23,130.65v0c0,.34,0,.62,0,.87l0,.45a2.65,2.65,0,0,1,0,.66c0,.12-.08,0-.09-.23h0l0-.68c0-.21,0-.45,0-.73a2.21,2.21,0,0,1,0-.63C255.18,130.31,255.22,130.43,255.23,130.65Z"/><path d="M255.56,95.25a4.1,4.1,0,0,1,0,.51c0,.43,0,.85,0,1.24s0,.71-.1.68a2.06,2.06,0,0,1-.1-.81c0-.46,0-1,0-1.48s.06-.65.12-.54A1.33,1.33,0,0,1,255.56,95.25Z"/><path d="M255.66,89.53a3.58,3.58,0,0,1,0,.78l-.13.48c0,.14-.09,0-.11-.28a3.52,3.52,0,0,1,0-.77l.13-.48C255.59,89.12,255.64,89.24,255.66,89.53Z"/><path d="M246.43,3.45l.32.18a11.54,11.54,0,0,1,1,.8c.26.23.37.39.18.3a3.49,3.49,0,0,1-.76-.5l-.13-.11a2.85,2.85,0,0,0-.5-.38c-.35-.21-.58-.4-.53-.44A.91.91,0,0,1,246.43,3.45Z"/><path d="M236,.63l1.49,0a1.16,1.16,0,0,1,.46.06c.07,0,0,0-.17,0l-1.49,0a2.36,2.36,0,0,1-.44,0C235.75.65,235.82.63,236,.63Z"/></svg>